<?xml version="1.0" encoding="utf-8"?>
<!-- Generator: Adobe Illustrator 23.0.1, SVG Export Plug-In . SVG Version: 6.00 Build 0)  -->
<svg version="1.1" id="Layer_1" xmlns="http://www.w3.org/2000/svg" xmlns:xlink="http://www.w3.org/1999/xlink" x="0px" y="0px"
	 viewBox="0 0 1920 1080" enable-background="new 0 0 1920 1080" xml:space="preserve">
<g>
	<path d="M376.04,536.7c44.28,0,84.79,0.1,125.3-0.02c79.94-0.24,142.47-62.29,142.22-140.99
		c-0.24-76.72-63.18-138.97-141.71-139.33c-87.87-0.4-175.76-0.89-263.61,0.46c-20.96,0.32-31.99-6.87-41.5-24.56
		c-20.89-38.83-43.77-76.58-67.96-118.46c12.84-0.6,22.09-1.39,31.35-1.4c114.5-0.08,229-0.07,343.5-0.05
		c130.14,0.03,242.94,87.41,275,212.98C810.95,451.96,751.25,587,635.86,648.36c-6.93,3.69-13.7,7.69-22.16,12.46
		c57.2,100.27,113.71,199.34,173.35,303.9c-34.86,0-65.73-3.37-95.56,0.75c-51.64,7.12-79.95-12.08-104.81-59
		c-61.36-115.82-129.97-227.8-195.59-341.37C386.39,556.96,382.26,548.49,376.04,536.7z"/>
	<path d="M850.15,112.81c48.48,83.94,93.76,161.69,138.03,240.01c4.37,7.73,3.45,18.95,3.46,28.55
		c0.21,134.84,0.15,269.69,0.15,404.53c0,10.42,0,20.85,0,34.84c13.4,0,23.72,0,34.05,0c94.92,0,189.85,0.44,284.77-0.4
		c17.46-0.16,27.18,5.43,35.52,20.71c21.93,40.19,45.68,79.39,70.39,121.91c-190.46,0-377.23,0-566.37,0
		C850.15,682.34,850.15,401.72,850.15,112.81z"/>
</g>
</svg>
